<?xml version="1.0" encoding="UTF-8"?>
<svg width="137px" height="61px" viewBox="0 0 137 61" version="1.1" xmlns="http://www.w3.org/2000/svg" xmlns:xlink="http://www.w3.org/1999/xlink">
    <!-- Generator: Sketch 61.2 (89653) - https://sketch.com -->
    <title>logo</title>
    <desc>Created with Sketch.</desc>
    <defs>
        <polygon id="path-1" points="0.324067273 0.225306452 37.4632727 0.225306452 37.4632727 36.8984573 0.324067273 36.8984573"></polygon>
    </defs>
    <g id="desktop_v2" stroke="none" stroke-width="1" fill="none" fill-rule="evenodd">
        <g id="03_Services_ECOM" transform="translate(-98.000000, -29.000000)">
            <g id="NAV">
                <g id="logo" transform="translate(98.000000, 29.000000)">
                    <path d="M8.44781855,32.4432435 C9.56374582,32.4432435 10.6791749,31.0269613 10.5197567,28.665671 C10.5197567,26.6197113 9.56374582,25.2029371 8.44781855,25.2029371 C7.17247309,25.2029371 6.37588036,26.6197113 6.37588036,28.8230903 C6.37588036,30.5547032 7.17247309,32.4432435 8.44781855,32.4432435 L8.44781855,32.4432435 Z M10.5197567,18.2779613 L9.24490945,18.2779613 L9.24490945,14.4998968 L16.5771495,14.4998968 L16.5771495,32.4432435 L18.0114149,32.4432435 L18.0114149,36.2208161 L10.9980113,36.2208161 L10.5197567,35.1188806 C10.2014185,35.4337194 8.92607309,36.3782355 6.85413491,36.3782355 C2.70926218,36.3782355 0.000149454545,32.7580823 0.000149454545,28.665671 C0.000149454545,24.1010016 3.18751673,21.2684371 6.85413491,21.2684371 C8.92607309,21.2684371 10.0420004,22.0550419 10.5197567,22.3698806 L10.5197567,18.2779613 Z" id="Fill-1" fill="#161616"></path>
                    <path d="M23.1120993,14.6574145 C25.1845356,14.6574145 26.2999647,16.2316081 26.2999647,17.6483823 C26.2999647,19.2220839 25.1845356,20.6388581 23.1120993,20.6388581 C21.1995793,20.6388581 19.924732,19.0646645 19.924732,17.6483823 C19.924732,16.2316081 21.0401611,14.6574145 23.1120993,14.6574145 L23.1120993,14.6574145 Z M27.2564738,36.2209145 L18.9682229,36.2209145 L18.9682229,32.4433419 L20.2430702,32.4433419 L20.2430702,25.5178742 L18.9682229,25.5178742 L18.9682229,21.7403016 L25.8217102,21.7403016 L25.8217102,32.4433419 L27.2564738,32.4433419 L27.2564738,36.2209145 Z" id="Fill-3" fill="#161616"></path>
                    <path d="M36.6607516,32.4432435 C37.7766789,32.4432435 38.892108,31.0269613 38.7326898,28.665671 C38.7326898,26.6197113 37.7766789,25.2029371 36.6607516,25.2029371 C35.3854062,25.2029371 34.5888135,26.6197113 34.5888135,28.8230903 C34.5888135,30.5547032 35.3854062,32.4432435 36.6607516,32.4432435 L36.6607516,32.4432435 Z M30.2850207,36.3782355 C30.9221953,37.0079129 33.1540498,38.2667758 35.3854062,38.2667758 C38.0955153,38.2667758 38.7326898,36.6930742 38.7326898,35.5911387 L38.7326898,34.6466226 C38.2549335,35.1188806 37.1390062,36.2208161 35.2264862,36.2208161 C30.1256025,36.2208161 28.2130825,32.6006629 28.2130825,28.9805097 C28.2130825,24.4163323 30.7632753,21.5827839 35.5453225,21.5827839 C36.8201698,21.5827839 38.0955153,22.2124613 38.5737698,22.8421387 L39.2109444,21.8976226 L46.224348,21.8976226 L46.224348,25.6751952 L44.4712462,25.6751952 L44.4712462,34.3322758 C44.4712462,39.2112919 41.4427989,42.2017677 35.3854062,42.3591871 C32.1975407,42.3591871 29.8067662,40.7854855 28.6913371,39.8409694 L30.2850207,36.3782355 Z" id="Fill-5" fill="#161616"></path>
                    <path d="M51.4846,14.6574145 C53.5565382,14.6574145 54.6724655,16.2316081 54.6724655,17.6483823 C54.6724655,19.2220839 53.5565382,20.6388581 51.4846,20.6388581 C49.5715818,20.6388581 48.2967345,19.0646645 48.2967345,17.6483823 C48.2967345,16.2316081 49.4126618,14.6574145 51.4846,14.6574145 L51.4846,14.6574145 Z M55.7883927,36.2209145 L47.6590618,36.2209145 L47.6590618,32.4433419 L48.9344073,32.4433419 L48.9344073,25.5178742 L47.6590618,25.5178742 L47.6590618,21.7403016 L54.5130473,21.7403016 L54.5130473,32.4433419 L55.9478109,32.4433419 L55.9478109,36.2209145 L55.7883927,36.2209145 Z" id="Fill-7" fill="#161616"></path>
                    <path d="M56.9042702,21.7402524 L58.4979538,21.7402524 L58.4979538,19.0646153 L63.9171756,17.3334944 L63.9171756,21.7402524 L66.6272847,21.7402524 L66.6272847,25.517825 L63.9171756,25.517825 L63.9171756,30.7116798 C63.9171756,31.656196 63.7582556,33.0729702 64.8736847,33.0729702 C65.1925211,33.0729702 66.1490302,32.7581315 66.7867029,32.6007121 L66.7867029,36.3782847 C65.8301938,36.6931234 63.9171756,36.8505427 63.2800011,36.8505427 C58.8167902,36.8505427 58.6578702,34.4897444 58.6578702,30.7116798 L58.6578702,25.517825 L57.0631902,25.517825 L56.9042702,21.7402524 Z" id="Fill-9" fill="#161616"></path>
                    <path d="M76.5094684,32.1285524 L76.5094684,31.0266169 C76.3505484,30.8691976 76.0312138,30.2400121 74.7558684,30.2400121 C73.6404393,30.2400121 73.0027665,30.8691976 73.0027665,31.8137137 C73.0027665,32.6008105 73.6404393,33.2304879 74.5969484,33.2304879 C75.5534575,33.0725766 76.3505484,32.4433911 76.5094684,32.1285524 L76.5094684,32.1285524 Z M68.2207193,22.9997056 C69.3371447,22.3700282 71.8873375,20.953254 74.5969484,20.953254 C78.1036502,20.953254 82.5663629,22.2126089 82.5663629,26.9342056 L82.5663629,32.6008105 L84.3199629,32.6008105 L84.3199629,36.3783831 L77.944232,36.3783831 L77.3070575,35.1190282 C76.190632,36.5353105 74.4375302,37.0075685 73.3221011,37.0075685 C70.611992,37.0075685 67.5835447,35.5912863 67.5835447,32.1285524 C67.5835447,28.8232379 70.2931556,26.7772782 73.6404393,26.7772782 C75.3940393,26.7772782 76.3505484,27.5638831 76.5094684,27.7213024 L76.5094684,26.7772782 C76.5094684,25.5179234 75.2341229,25.2030847 73.8003556,25.2030847 C72.0467556,25.2030847 70.611992,25.9901815 69.4965629,26.4619476 L68.2207193,22.9997056 Z" id="Fill-11" fill="#161616"></path>
                    <polygon id="Fill-13" fill="#161616" points="94.0431269 36.2209145 85.4360396 36.2209145 85.4360396 32.4433419 86.7108869 32.4433419 86.7108869 18.2775677 85.4360396 18.2775677 85.4360396 14.4999952 92.2895269 14.4999952 92.2895269 32.4433419 94.0431269 32.4433419"></polygon>
                    <path d="M25.3436549,49.4421234 C24.2282258,49.4421234 23.1122985,50.8584056 23.2717167,53.219696 C23.2717167,55.1087282 24.2282258,56.6824298 25.3436549,56.6824298 C26.6190004,56.6824298 27.4160913,55.2656556 27.4160913,53.0622766 C27.4160913,51.3306637 26.6190004,49.4421234 25.3436549,49.4421234 M16.2583131,56.3675911 L17.5331604,56.3675911 L17.5331604,42.2018169 L16.2583131,42.2018169 L16.2583131,38.4242444 L23.4311349,38.4242444 L23.4311349,46.7664863 C24.0683095,45.9793895 25.8219095,45.3497121 27.2566731,45.3497121 C31.719884,45.3497121 34.1106585,49.1272847 33.9507422,52.9048573 C33.7918222,57.3121073 31.2416295,60.3025831 27.2566731,60.3025831 C25.0248185,60.3025831 24.2282258,59.6729056 23.4311349,59.0432282 L22.9528804,59.9877444 L16.2583131,59.9877444" id="Fill-15" fill="#161616"></path>
                    <path d="M35.0669684,45.6646984 L42.239292,45.6646984 L42.239292,52.5901661 C42.239292,55.1083839 42.5586265,56.2103194 43.833972,56.2103194 C44.7899829,56.2103194 45.746492,55.2658032 45.746492,54.0069403 L45.746492,49.442271 L43.833972,49.442271 L43.833972,45.6646984 L51.4845502,45.6646984 L51.4845502,56.2103194 L52.9193138,56.2103194 L52.9193138,59.9878919 L47.3406738,59.9878919 L46.5430847,58.0988597 C45.9059102,58.8859565 44.9494011,60.3022387 42.3992084,60.3022387 C37.9359975,60.3022387 36.501732,58.0988597 36.501732,53.2193516 L36.501732,49.442271 L35.2263865,49.442271 L35.2263865,45.6646984 L35.0669684,45.6646984 Z" id="Fill-17" fill="#161616"></path>
                    <path d="M53.5566378,45.6646984 L55.1508196,45.6646984 L55.1508196,42.9890613 L60.5700415,41.2574484 L60.5700415,45.6646984 L63.2801505,45.6646984 L63.2801505,49.442271 L60.5700415,49.442271 L60.5700415,54.6361258 C60.5700415,55.5806419 60.4106233,56.9974161 61.5265505,56.9974161 C61.8453869,56.9974161 62.801896,56.6820855 63.4390705,56.5251581 L63.4390705,60.3022387 C62.4830596,60.6175694 60.5700415,60.7744968 59.9328669,60.7744968 C55.469656,60.7744968 55.3102378,58.4136984 55.3102378,54.6361258 L55.3102378,49.442271 L53.716056,49.442271 L53.5566378,45.6646984 Z" id="Fill-19" fill="#161616"></path>
                    <path d="M64.2364105,45.6646984 L65.8300942,45.6646984 L65.8300942,42.9890613 L71.249316,41.2574484 L71.249316,45.6646984 L73.9594251,45.6646984 L73.9594251,49.442271 L71.249316,49.442271 L71.249316,54.6361258 C71.249316,55.5806419 71.090396,56.9974161 72.2058251,56.9974161 C72.5251596,56.9974161 73.4811705,56.6820855 74.1188433,56.5251581 L74.1188433,60.3022387 C73.1623342,60.6175694 71.249316,60.7744968 70.6121415,60.7744968 C66.1489305,60.7744968 65.9900105,58.4136984 65.9900105,54.6361258 L65.9900105,49.442271 L64.3953305,49.442271 L64.2364105,45.6646984 Z" id="Fill-21" fill="#161616"></path>
                    <path d="M80.3353553,51.4881815 L84.798068,51.4881815 C84.798068,50.3867379 84.4792316,49.1273831 82.5667116,49.1273831 C80.8131116,49.1273831 80.3353553,50.7010847 80.3353553,51.4881815 L80.3353553,51.4881815 Z M89.7395335,58.0988105 C87.5076789,59.9878427 85.2763225,60.6175202 82.2478753,60.6175202 C78.5817553,60.6175202 74.4373807,58.2562298 74.4373807,52.7475363 C74.4373807,48.0254476 77.9440825,45.1923911 82.2478753,45.1923911 C85.7545771,45.1923911 88.464188,46.924004 89.2612789,49.4422218 C89.5801153,50.3867379 89.8989516,52.7475363 89.2612789,54.3212379 L80.0160207,54.3212379 C80.1759371,55.1083347 80.6541916,56.6825282 83.044468,56.6825282 C84.0009771,56.6825282 85.5951589,56.5251089 87.1893407,55.265754 L89.7395335,58.0988105 Z" id="Fill-23" fill="#161616"></path>
                    <path d="M99.3032295,60.1451145 L91.0144804,60.1451145 L91.0144804,56.3675419 L92.2898258,56.3675419 L92.2898258,49.4420742 L91.0144804,49.4420742 L91.0144804,45.6645016 L96.5936185,45.6645016 L97.5496295,47.5535339 C98.3467204,46.1367597 99.1438113,45.0353161 102.172259,45.0353161 L102.172259,50.229171 C99.4621495,50.229171 98.027884,50.8588484 98.027884,53.3770661 L98.027884,56.3675419 L99.4621495,56.3675419 L99.3032295,60.1451145 Z" id="Fill-25" fill="#161616"></path>
                    <g id="Group-29" transform="translate(99.138182, 0.266629)">
                        <mask id="mask-2" fill="white">
                            <use xlink:href="#path-1"></use>
                        </mask>
                        <g id="Clip-28"></g>
                        <path d="M37.4635218,33.9079815 C37.4635218,35.6395944 36.1881764,36.8984573 34.5939945,36.8984573 L3.35251455,36.8984573 C1.59991091,36.8984573 0.324067273,35.482175 0.324067273,33.9079815 L0.324067273,3.21563468 C0.324067273,1.48451371 1.75883091,0.225158871 3.35251455,0.225158871 L34.4350745,0.225158871 C36.1881764,0.225158871 37.4635218,1.64193306 37.4635218,3.21563468 L37.4635218,33.9079815 Z" id="Fill-27" fill="#161616" mask="url(#mask-2)"></path>
                    </g>
                    <path d="M130.226023,4.42668145 L105.838528,4.42668145 C104.563183,4.42668145 103.447255,5.52861694 103.447255,6.78747984 L103.447255,30.8691976 C103.447255,32.1285524 104.563183,33.2304879 105.838528,33.2304879 L106.795037,33.2304879 C107.272793,33.3879073 107.910466,33.5448347 108.388721,34.1745121 C109.664066,35.5912863 109.025895,37.3228992 107.910466,41.0999798 C106.795037,44.4057863 109.025895,47.5531895 112.373677,47.5531895 C115.720961,47.5531895 117.633979,44.8775524 116.83639,41.2573992 C116.517553,39.6836976 115.402124,37.9520847 115.402124,36.3783831 C115.402124,34.3324234 116.517553,33.3879073 117.474063,33.0725766 L130.066604,33.0725766 C131.341452,33.0725766 132.457379,31.9711331 132.457379,30.7117782 L132.457379,6.78747984 C132.457379,5.37119758 131.660288,4.42668145 130.226023,4.42668145" id="Fill-30" fill="#FFDB00"></path>
                </g>
            </g>
        </g>
    </g>
</svg>